<?plantuml 1.2026.1?><svg xmlns="http://www.w3.org/2000/svg" xmlns:xlink="http://www.w3.org/1999/xlink" contentStyleType="text/css" data-diagram-type="CLASS" height="409.375px" preserveAspectRatio="none" style="width:601px;height:409px;" version="1.1" viewBox="0 0 601 409" width="601.0417px" zoomAndPan="magnify"><defs><linearGradient id="g1om0s1u5h7ljz0" x1="50%" x2="50%" y1="0%" y2="100%"><stop offset="0%" stop-color="#59B6EC"/><stop offset="100%" stop-color="#2FA4E7"/></linearGradient></defs><g><!--cluster dogpack--><g class="cluster" data-qualified-name="dogpack" data-source-line="6" id="ent0002"><path d="M237.5,16.6667 L271.8953,16.6667 A6.25,6.25 0 0 1 276.062,20.8333 L283.3537,48.525 L337.5,48.525 A4.1667,4.1667 0 0 1 341.6667,52.6917 L341.6667,130.8125 A4.1667,4.1667 0 0 1 337.5,134.9792 L237.5,134.9792 A4.1667,4.1667 0 0 1 233.3333,130.8125 L233.3333,20.8333 A4.1667,4.1667 0 0 1 237.5,16.6667" fill="none" style="stroke:#59B6EC;stroke-width:2.0833;"/><line style="stroke:#59B6EC;stroke-width:2.0833;" x1="233.3333" x2="283.3537" y1="48.525" y2="48.525"/><text fill="#2FA4E7" font-family="'Verdana'" font-size="12.5" font-weight="bold" lengthAdjust="spacing" textLength="26.062" x="242.7083" y="36.5255">dog</text></g><!--cluster cli--><g class="cluster" data-qualified-name="cli" data-source-line="10" id="ent0004"><path d="M20.8333,159.9792 L45.0663,159.9792 A6.25,6.25 0 0 1 49.233,164.1458 L56.5247,191.8375 L263.5417,191.8375 A4.1667,4.1667 0 0 1 267.7083,196.0042 L267.7083,274.1354 A4.1667,4.1667 0 0 1 263.5417,278.3021 L20.8333,278.3021 A4.1667,4.1667 0 0 1 16.6667,274.1354 L16.6667,164.1458 A4.1667,4.1667 0 0 1 20.8333,159.9792" fill="none" style="stroke:#59B6EC;stroke-width:2.0833;"/><line style="stroke:#59B6EC;stroke-width:2.0833;" x1="16.6667" x2="56.5247" y1="191.8375" y2="191.8375"/><text fill="#2FA4E7" font-family="'Verdana'" font-size="12.5" font-weight="bold" lengthAdjust="spacing" textLength="15.8997" x="26.0417" y="179.838">cli</text></g><!--cluster core--><g class="cluster" data-qualified-name="core" data-source-line="15" id="ent0007"><path d="M296.875,159.9792 L335.6588,159.9792 A6.25,6.25 0 0 1 339.8254,164.1458 L347.1171,191.8375 L455.2083,191.8375 A4.1667,4.1667 0 0 1 459.375,196.0042 L459.375,393.4896 A4.1667,4.1667 0 0 1 455.2083,397.6563 L296.875,397.6563 A4.1667,4.1667 0 0 1 292.7083,393.4896 L292.7083,164.1458 A4.1667,4.1667 0 0 1 296.875,159.9792" fill="none" style="stroke:#59B6EC;stroke-width:2.0833;"/><line style="stroke:#59B6EC;stroke-width:2.0833;" x1="292.7083" x2="347.1171" y1="191.8375" y2="191.8375"/><text fill="#2FA4E7" font-family="'Verdana'" font-size="12.5" font-weight="bold" lengthAdjust="spacing" textLength="30.4504" x="302.0833" y="179.838">core</text></g><!--cluster utilpack--><g class="cluster" data-qualified-name="utilpack" data-source-line="20" id="ent0010"><path d="M488.5417,159.9792 L520.0195,159.9792 A6.25,6.25 0 0 1 524.1862,164.1458 L531.4779,191.8375 L584.375,191.8375 A4.1667,4.1667 0 0 1 588.5417,196.0042 L588.5417,274.1354 A4.1667,4.1667 0 0 1 584.375,278.3021 L488.5417,278.3021 A4.1667,4.1667 0 0 1 484.375,274.1354 L484.375,164.1458 A4.1667,4.1667 0 0 1 488.5417,159.9792" fill="none" style="stroke:#59B6EC;stroke-width:2.0833;"/><line style="stroke:#59B6EC;stroke-width:2.0833;" x1="484.375" x2="531.4779" y1="191.8375" y2="191.8375"/><text fill="#2FA4E7" font-family="'Verdana'" font-size="12.5" font-weight="bold" lengthAdjust="spacing" textLength="23.1445" x="493.75" y="179.838">util</text></g><!--entity dogcomp--><g class="entity" data-qualified-name="dogpack.dogcomp" data-source-line="7" id="ent0003"><rect fill="url(#g1om0s1u5h7ljz0)" height="56.8583" rx="4.1667" ry="4.1667" style="stroke:#2FA4E7;stroke-width:1.0417;" width="75.2462" x="249.875" y="61.4583"/><rect fill="url(#g1om0s1u5h7ljz0)" height="10.4167" style="stroke:#2FA4E7;stroke-width:1.0417;" width="15.625" x="304.2878" y="66.6667"/><rect fill="url(#g1om0s1u5h7ljz0)" height="2.0833" style="stroke:#2FA4E7;stroke-width:1.0417;" width="4.1667" x="302.2045" y="68.75"/><rect fill="url(#g1om0s1u5h7ljz0)" height="2.0833" style="stroke:#2FA4E7;stroke-width:1.0417;" width="4.1667" x="302.2045" y="72.9167"/><text fill="#FFFFFF" font-family="'Verdana'" font-size="12.5" lengthAdjust="spacing" textLength="23.1628" x="270.7083" y="100.0671">dog</text></g><!--entity config--><g class="entity" data-qualified-name="cli.config" data-source-line="11" id="ent0005"><rect fill="url(#g1om0s1u5h7ljz0)" height="56.8583" rx="4.1667" ry="4.1667" style="stroke:#2FA4E7;stroke-width:1.0417;" width="89.7054" x="33.2708" y="204.7708"/><rect fill="url(#g1om0s1u5h7ljz0)" height="10.4167" style="stroke:#2FA4E7;stroke-width:1.0417;" width="15.625" x="102.1429" y="209.9792"/><rect fill="url(#g1om0s1u5h7ljz0)" height="2.0833" style="stroke:#2FA4E7;stroke-width:1.0417;" width="4.1667" x="100.0596" y="212.0625"/><rect fill="url(#g1om0s1u5h7ljz0)" height="2.0833" style="stroke:#2FA4E7;stroke-width:1.0417;" width="4.1667" x="100.0596" y="216.2292"/><text fill="#FFFFFF" font-family="'Verdana'" font-size="12.5" lengthAdjust="spacing" textLength="37.6221" x="54.1042" y="243.3796">config</text></g><!--entity parser--><g class="entity" data-qualified-name="cli.parser" data-source-line="12" id="ent0006"><rect fill="url(#g1om0s1u5h7ljz0)" height="56.8583" rx="4.1667" ry="4.1667" style="stroke:#2FA4E7;stroke-width:1.0417;" width="92.0064" x="159.2083" y="204.7708"/><rect fill="url(#g1om0s1u5h7ljz0)" height="10.4167" style="stroke:#2FA4E7;stroke-width:1.0417;" width="15.625" x="230.3814" y="209.9792"/><rect fill="url(#g1om0s1u5h7ljz0)" height="2.0833" style="stroke:#2FA4E7;stroke-width:1.0417;" width="4.1667" x="228.2981" y="212.0625"/><rect fill="url(#g1om0s1u5h7ljz0)" height="2.0833" style="stroke:#2FA4E7;stroke-width:1.0417;" width="4.1667" x="228.2981" y="216.2292"/><text fill="#FFFFFF" font-family="'Verdana'" font-size="12.5" lengthAdjust="spacing" textLength="39.9231" x="180.0417" y="243.3796">parser</text></g><!--entity processor--><g class="entity" data-qualified-name="core.processor" data-source-line="16" id="ent0008"><rect fill="url(#g1om0s1u5h7ljz0)" height="56.8583" rx="4.1667" ry="4.1667" style="stroke:#2FA4E7;stroke-width:1.0417;" width="112.6973" x="314.4896" y="204.7708"/><rect fill="url(#g1om0s1u5h7ljz0)" height="10.4167" style="stroke:#2FA4E7;stroke-width:1.0417;" width="15.625" x="406.3536" y="209.9792"/><rect fill="url(#g1om0s1u5h7ljz0)" height="2.0833" style="stroke:#2FA4E7;stroke-width:1.0417;" width="4.1667" x="404.2703" y="212.0625"/><rect fill="url(#g1om0s1u5h7ljz0)" height="2.0833" style="stroke:#2FA4E7;stroke-width:1.0417;" width="4.1667" x="404.2703" y="216.2292"/><text fill="#FFFFFF" font-family="'Verdana'" font-size="12.5" lengthAdjust="spacing" textLength="60.614" x="335.3229" y="243.3796">processor</text></g><!--entity transformers--><g class="entity" data-qualified-name="core.transformers" data-source-line="17" id="ent0009"><rect fill="url(#g1om0s1u5h7ljz0)" height="56.8583" rx="4.1667" ry="4.1667" style="stroke:#2FA4E7;stroke-width:1.0417;" width="133.0404" x="309.5208" y="324.1354"/><rect fill="url(#g1om0s1u5h7ljz0)" height="10.4167" style="stroke:#2FA4E7;stroke-width:1.0417;" width="15.625" x="421.7279" y="329.3438"/><rect fill="url(#g1om0s1u5h7ljz0)" height="2.0833" style="stroke:#2FA4E7;stroke-width:1.0417;" width="4.1667" x="419.6445" y="331.4271"/><rect fill="url(#g1om0s1u5h7ljz0)" height="2.0833" style="stroke:#2FA4E7;stroke-width:1.0417;" width="4.1667" x="419.6445" y="335.5938"/><text fill="#FFFFFF" font-family="'Verdana'" font-size="12.5" lengthAdjust="spacing" textLength="80.957" x="330.3542" y="362.7442">transformers</text></g><!--entity utilcomp--><g class="entity" data-qualified-name="utilpack.utilcomp" data-source-line="21" id="ent0011"><rect fill="url(#g1om0s1u5h7ljz0)" height="56.8583" rx="4.1667" ry="4.1667" style="stroke:#2FA4E7;stroke-width:1.0417;" width="71.7794" x="500.5729" y="204.7708"/><rect fill="url(#g1om0s1u5h7ljz0)" height="10.4167" style="stroke:#2FA4E7;stroke-width:1.0417;" width="15.625" x="551.519" y="209.9792"/><rect fill="url(#g1om0s1u5h7ljz0)" height="2.0833" style="stroke:#2FA4E7;stroke-width:1.0417;" width="4.1667" x="549.4356" y="212.0625"/><rect fill="url(#g1om0s1u5h7ljz0)" height="2.0833" style="stroke:#2FA4E7;stroke-width:1.0417;" width="4.1667" x="549.4356" y="216.2292"/><text fill="#FFFFFF" font-family="'Verdana'" font-size="12.5" lengthAdjust="spacing" textLength="19.696" x="521.4063" y="243.3796">util</text></g><!--link dogcomp to config--><g class="link" data-entity-1="ent0003" data-entity-2="ent0005" data-link-type="dependency" data-source-line="24" id="lnk12"><path codeLine="24" d="M249.4271,100.7292 C218.0104,110.1354 173.4271,126.6354 140.625,151.6458 C121.7708,166.0208 108.9517,182.1753 97.7538,199.3003" fill="none" id="dogcomp-to-config" style="stroke:#2FA4E7;stroke-width:3.125;"/><polygon fill="#2FA4E7" points="94.3333,204.5313,102.9514,198.9651,97.1837,200.1721,95.9768,194.4045,94.3333,204.5313" style="stroke:#2FA4E7;stroke-width:3.125;"/></g><!--link dogcomp to parser--><g class="link" data-entity-1="ent0003" data-entity-2="ent0006" data-link-type="dependency" data-source-line="25" id="lnk13"><path codeLine="25" d="M271.2396,118.8333 C256.8125,143.5938 239.001,174.1729 224.5843,198.9125" fill="none" id="dogcomp-to-parser" style="stroke:#2FA4E7;stroke-width:3.125;"/><polygon fill="#2FA4E7" points="221.4375,204.3125,229.7577,198.3103,224.0598,199.8125,222.5577,194.1146,221.4375,204.3125" style="stroke:#2FA4E7;stroke-width:3.125;"/></g><!--link dogcomp to processor--><g class="link" data-entity-1="ent0003" data-entity-2="ent0008" data-link-type="dependency" data-source-line="26" id="lnk14"><path codeLine="26" d="M303.9688,118.8333 C318.5729,143.5938 336.6249,174.1907 351.2291,198.9303" fill="none" id="dogcomp-to-processor" style="stroke:#2FA4E7;stroke-width:3.125;"/><polygon fill="#2FA4E7" points="354.4063,204.3125,353.2286,194.1211,351.7586,199.8273,346.0523,198.3573,354.4063,204.3125" style="stroke:#2FA4E7;stroke-width:3.125;"/></g><!--link dogcomp to utilcomp--><g class="link" data-entity-1="ent0003" data-entity-2="ent0011" data-link-type="dependency" data-source-line="27" id="lnk15"><path codeLine="27" d="M325.3125,98.8854 C361.7396,107.75 417.3646,124.5208 459.375,151.6458 C481.1563,165.7188 497.2797,182.2963 511.488,199.4942" fill="none" id="dogcomp-to-utilcomp" style="stroke:#2FA4E7;stroke-width:3.125;"/><polygon fill="#2FA4E7" points="515.4688,204.3125,512.7099,194.4312,512.1515,200.2972,506.2854,199.7388,515.4688,204.3125" style="stroke:#2FA4E7;stroke-width:3.125;"/></g><!--link processor to transformers--><g class="link" data-entity-1="ent0008" data-entity-2="ent0009" data-link-type="dependency" data-source-line="29" id="lnk16"><path codeLine="29" d="M372.0625,262.0313 C372.8958,280.7292 373.7142,299.0269 374.5371,317.6832" fill="none" id="processor-to-transformers" style="stroke:#2FA4E7;stroke-width:3.125;"/><polygon fill="#2FA4E7" points="374.8125,323.9271,378.562,314.3776,374.583,318.7238,370.2368,314.7448,374.8125,323.9271" style="stroke:#2FA4E7;stroke-width:3.125;"/></g><?plantuml-src RO_H3eCW34NV-nMTx_x2_gN1oiY0aeBPacN_FZLAHCSBvD3Rd4lUookujuiMu5OU71WDw-IP8a0YyoJBs0rYEwICyxqm_03EnqX84ZcMPc2Xy3s4ZNVT9M4aZiwUO2BDh6rObA_ff68uPz4JBqenZwA1DJThfkByAhWy_bTeHlOIMn_i-_kkV4IRS8Egsf7MdL3_Lzu8_m00?></g></svg>