<?plantuml 1.2026.1?><svg xmlns="http://www.w3.org/2000/svg" xmlns:xlink="http://www.w3.org/1999/xlink" contentStyleType="text/css" data-diagram-type="ACTIVITY" height="768.75px" preserveAspectRatio="none" style="width:551px;height:768px;" version="1.1" viewBox="0 0 551 768" width="551.0417px" zoomAndPan="magnify"><defs><linearGradient id="g5ympprwt4ndo0" x1="50%" x2="50%" y1="0%" y2="100%"><stop offset="0%" stop-color="#59B6EC"/><stop offset="100%" stop-color="#2FA4E7"/></linearGradient><linearGradient id="g5ympprwt4ndo1" x1="50%" x2="50%" y1="0%" y2="100%"><stop offset="0%" stop-color="#FFFFFF"/><stop offset="100%" stop-color="#EDF0F2"/></linearGradient></defs><g><ellipse cx="274.4843" cy="20.8333" fill="#033C73" rx="10.4167" ry="10.4167" style="stroke:#2683B9;stroke-width:1.0417;"/><rect fill="url(#g5ympprwt4ndo0)" height="38.1083" rx="4.1667" ry="4.1667" style="stroke:#2FA4E7;stroke-width:1.0417;" width="122.8312" x="213.0686" y="52.0833"/><text fill="#FFFFFF" font-family="'Verdana'" font-size="12.5" lengthAdjust="spacing" textLength="99.9146" x="224.527" y="76.1088">Read input data</text><rect fill="url(#g5ympprwt4ndo0)" height="38.1083" rx="4.1667" ry="4.1667" style="stroke:#2FA4E7;stroke-width:1.0417;" width="102.4821" x="223.2432" y="111.025"/><text fill="#FFFFFF" font-family="'Verdana'" font-size="12.5" lengthAdjust="spacing" textLength="79.5654" x="234.7015" y="135.0505">Process data</text><rect fill="url(#g5ympprwt4ndo0)" height="38.1083" rx="4.1667" ry="4.1667" style="stroke:#2FA4E7;stroke-width:1.0417;" width="102.3112" x="223.3287" y="235.7463"/><text fill="#FFFFFF" font-family="'Verdana'" font-size="12.5" lengthAdjust="spacing" textLength="79.3945" x="234.787" y="259.7717">Process byte</text><rect fill="url(#g5ympprwt4ndo0)" height="38.1083" rx="4.1667" ry="4.1667" style="stroke:#2FA4E7;stroke-width:1.0417;" width="202.9399" x="290.0075" y="320.2962"/><text fill="#FFFFFF" font-family="'Verdana'" font-size="12.5" lengthAdjust="spacing" textLength="180.0232" x="301.4659" y="344.3217">Transform newline character</text><rect fill="url(#g5ympprwt4ndo0)" height="38.1083" rx="4.1667" ry="4.1667" style="stroke:#2FA4E7;stroke-width:1.0417;" width="239.9821" x="271.4864" y="404.8462"/><text fill="#FFFFFF" font-family="'Verdana'" font-size="12.5" lengthAdjust="spacing" textLength="217.0654" x="282.9447" y="428.8717">Transform alphanumeric character</text><rect fill="url(#g5ympprwt4ndo0)" height="38.1083" rx="4.1667" ry="4.1667" style="stroke:#2FA4E7;stroke-width:1.0417;" width="198.4233" x="292.2658" y="489.3962"/><text fill="#FFFFFF" font-family="'Verdana'" font-size="12.5" lengthAdjust="spacing" textLength="175.5066" x="303.7242" y="513.4216">Transform control character</text><polygon fill="url(#g5ympprwt4ndo1)" points="68.5211,294.6879,213.1114,294.6879,225.6114,307.4921,213.1114,320.2962,68.5211,320.2962,56.0211,307.4921,68.5211,294.6879" style="stroke:#BABDBF;stroke-width:1.0417;"/><text fill="#343A40" font-family="'Verdana'" font-size="12.5" lengthAdjust="spacing" textLength="134.1736" x="73.7295" y="312.4634">Is newline character?</text><text fill="#343A40" font-family="'Verdana'" font-size="12.5" lengthAdjust="spacing" textLength="21.6492" x="230.8197" y="299.6592">Yes</text><polygon fill="url(#g5ympprwt4ndo1)" points="50,379.2379,231.6325,379.2379,244.1325,392.042,231.6325,404.8462,50,404.8462,37.5,392.042,50,379.2379" style="stroke:#BABDBF;stroke-width:1.0417;"/><text fill="#343A40" font-family="'Verdana'" font-size="12.5" lengthAdjust="spacing" textLength="171.2158" x="55.2083" y="397.0133">Is alphanumeric character?</text><text fill="#343A40" font-family="'Verdana'" font-size="12.5" lengthAdjust="spacing" textLength="21.6492" x="249.3408" y="384.2092">Yes</text><polygon fill="url(#g5ympprwt4ndo1)" points="70.7794,463.7878,210.8531,463.7878,223.3531,476.592,210.8531,489.3962,70.7794,489.3962,58.2794,476.592,70.7794,463.7878" style="stroke:#BABDBF;stroke-width:1.0417;"/><text fill="#343A40" font-family="'Verdana'" font-size="12.5" lengthAdjust="spacing" textLength="129.657" x="75.9878" y="481.5633">Is control character?</text><text fill="#343A40" font-family="'Verdana'" font-size="12.5" lengthAdjust="spacing" textLength="21.6492" x="228.5614" y="468.7592">Yes</text><rect fill="url(#g5ympprwt4ndo0)" height="38.1083" rx="4.1667" ry="4.1667" style="stroke:#2FA4E7;stroke-width:1.0417;" width="220.5607" x="164.2039" y="548.3378"/><text fill="#FFFFFF" font-family="'Verdana'" font-size="12.5" lengthAdjust="spacing" textLength="197.644" x="175.6622" y="572.3633">Transform non-ASCII character</text><polygon fill="url(#g5ympprwt4ndo1)" points="274.4843,607.2795,286.9843,619.7795,274.4843,632.2795,261.9843,619.7795,274.4843,607.2795" style="stroke:#BABDBF;stroke-width:1.0417;"/><polygon fill="url(#g5ympprwt4ndo1)" points="208.4422,169.9666,340.5263,169.9666,353.0263,182.7708,340.5263,195.575,208.4422,195.575,195.9422,182.7708,208.4422,169.9666" style="stroke:#BABDBF;stroke-width:1.0417;"/><text fill="#343A40" font-family="'Verdana'" font-size="12.5" lengthAdjust="spacing" textLength="16.9373" x="283.8593" y="213.3504">No</text><text fill="#343A40" font-family="'Verdana'" font-size="12.5" lengthAdjust="spacing" textLength="121.6675" x="213.6505" y="187.7421">All data processed?</text><text fill="#343A40" font-family="'Verdana'" font-size="12.5" lengthAdjust="spacing" textLength="21.6492" x="169.0847" y="174.9379">Yes</text><rect fill="url(#g5ympprwt4ndo0)" height="38.1083" rx="4.1667" ry="4.1667" style="stroke:#2FA4E7;stroke-width:1.0417;" width="117.3625" x="215.803" y="676.0295"/><text fill="#FFFFFF" font-family="'Verdana'" font-size="12.5" lengthAdjust="spacing" textLength="94.4458" x="227.2614" y="700.0549">Write to stdout</text><ellipse cx="274.4843" cy="746.4294" fill="none" rx="11.4583" ry="11.4583" style="stroke:#2683B9;stroke-width:1.0417;"/><ellipse cx="274.4843" cy="746.4294" fill="none" rx="6.25" ry="6.25" style="stroke:#2683B9;stroke-width:1.0417;"/><line style="stroke:#2FA4E7;stroke-width:3.125;" x1="274.4843" x2="274.4843" y1="31.25" y2="52.0833"/><polygon fill="#2FA4E7" points="270.3176,41.6667,274.4843,52.0833,278.6509,41.6667,274.4843,45.8333" style="stroke:#2FA4E7;stroke-width:1.0417;"/><line style="stroke:#2FA4E7;stroke-width:3.125;" x1="274.4843" x2="274.4843" y1="90.1917" y2="111.025"/><polygon fill="#2FA4E7" points="270.3176,100.6083,274.4843,111.025,278.6509,100.6083,274.4843,104.775" style="stroke:#2FA4E7;stroke-width:1.0417;"/><line style="stroke:#2FA4E7;stroke-width:3.125;" x1="225.6114" x2="391.4775" y1="307.4921" y2="307.4921"/><line style="stroke:#2FA4E7;stroke-width:3.125;" x1="391.4775" x2="391.4775" y1="307.4921" y2="320.2962"/><polygon fill="#2FA4E7" points="387.3108,309.8796,391.4775,320.2962,395.6441,309.8796,391.4775,314.0462" style="stroke:#2FA4E7;stroke-width:1.0417;"/><line style="stroke:#2FA4E7;stroke-width:3.125;" x1="244.1325" x2="391.4775" y1="392.042" y2="392.042"/><line style="stroke:#2FA4E7;stroke-width:3.125;" x1="391.4775" x2="391.4775" y1="392.042" y2="404.8462"/><polygon fill="#2FA4E7" points="387.3108,394.4295,391.4775,404.8462,395.6441,394.4295,391.4775,398.5962" style="stroke:#2FA4E7;stroke-width:1.0417;"/><line style="stroke:#2FA4E7;stroke-width:3.125;" x1="223.3531" x2="391.4775" y1="476.592" y2="476.592"/><line style="stroke:#2FA4E7;stroke-width:3.125;" x1="391.4775" x2="391.4775" y1="476.592" y2="489.3962"/><polygon fill="#2FA4E7" points="387.3108,478.9795,391.4775,489.3962,395.6441,478.9795,391.4775,483.1462" style="stroke:#2FA4E7;stroke-width:1.0417;"/><line style="stroke:#2FA4E7;stroke-width:3.125;" x1="140.8162" x2="140.8162" y1="320.2962" y2="379.2379"/><polygon fill="#2FA4E7" points="136.6496,368.8212,140.8162,379.2379,144.9829,368.8212,140.8162,372.9879" style="stroke:#2FA4E7;stroke-width:1.0417;"/><text fill="#343A40" font-family="'Verdana'" font-size="12.5" lengthAdjust="spacing" textLength="16.9373" x="146.0246" y="349.53">No</text><line style="stroke:#2FA4E7;stroke-width:3.125;" x1="140.8162" x2="140.8162" y1="404.8462" y2="463.7878"/><polygon fill="#2FA4E7" points="136.6496,453.3712,140.8162,463.7878,144.9829,453.3712,140.8162,457.5378" style="stroke:#2FA4E7;stroke-width:1.0417;"/><text fill="#343A40" font-family="'Verdana'" font-size="12.5" lengthAdjust="spacing" textLength="16.9373" x="146.0246" y="434.08">No</text><line style="stroke:#2FA4E7;stroke-width:3.125;" x1="391.4775" x2="391.4775" y1="358.4045" y2="374.0295"/><line style="stroke:#2FA4E7;stroke-width:3.125;" x1="391.4775" x2="511.4685" y1="374.0295" y2="374.0295"/><line style="stroke:#2FA4E7;stroke-width:3.125;" x1="511.4685" x2="511.4685" y1="374.0295" y2="619.7795"/><line style="stroke:#2FA4E7;stroke-width:3.125;" x1="511.4685" x2="286.9843" y1="619.7795" y2="619.7795"/><polygon fill="#2FA4E7" points="297.4009,615.6128,286.9843,619.7795,297.4009,623.9461,293.2343,619.7795" style="stroke:#2FA4E7;stroke-width:1.0417;"/><line style="stroke:#2FA4E7;stroke-width:3.125;" x1="391.4775" x2="391.4775" y1="442.9545" y2="458.5795"/><line style="stroke:#2FA4E7;stroke-width:3.125;" x1="391.4775" x2="511.4685" y1="458.5795" y2="458.5795"/><polygon fill="#2FA4E7" points="501.0518,454.4128,511.4685,458.5795,501.0518,462.7462,505.2185,458.5795" style="stroke:#2FA4E7;stroke-width:1.0417;"/><line style="stroke:#2FA4E7;stroke-width:3.125;" x1="391.4775" x2="391.4775" y1="527.5045" y2="543.1295"/><line style="stroke:#2FA4E7;stroke-width:3.125;" x1="391.4775" x2="511.4685" y1="543.1295" y2="543.1295"/><polygon fill="#2FA4E7" points="501.0518,538.9628,511.4685,543.1295,501.0518,547.2961,505.2185,543.1295" style="stroke:#2FA4E7;stroke-width:1.0417;"/><line style="stroke:#2FA4E7;stroke-width:3.125;" x1="274.4843" x2="274.4843" y1="273.8546" y2="279.0629"/><line style="stroke:#2FA4E7;stroke-width:3.125;" x1="274.4843" x2="140.8162" y1="279.0629" y2="279.0629"/><line style="stroke:#2FA4E7;stroke-width:3.125;" x1="140.8162" x2="140.8162" y1="279.0629" y2="294.6879"/><polygon fill="#2FA4E7" points="136.6496,284.2712,140.8162,294.6879,144.9829,284.2712,140.8162,288.4379" style="stroke:#2FA4E7;stroke-width:1.0417;"/><line style="stroke:#2FA4E7;stroke-width:3.125;" x1="140.8162" x2="140.8162" y1="489.3962" y2="532.7128"/><line style="stroke:#2FA4E7;stroke-width:3.125;" x1="140.8162" x2="274.4843" y1="532.7128" y2="532.7128"/><line style="stroke:#2FA4E7;stroke-width:3.125;" x1="274.4843" x2="274.4843" y1="532.7128" y2="548.3378"/><polygon fill="#2FA4E7" points="270.3176,537.9211,274.4843,548.3378,278.6509,537.9211,274.4843,542.0878" style="stroke:#2FA4E7;stroke-width:1.0417;"/><text fill="#343A40" font-family="'Verdana'" font-size="12.5" lengthAdjust="spacing" textLength="16.9373" x="146.0246" y="518.63">No</text><line style="stroke:#2FA4E7;stroke-width:3.125;" x1="274.4843" x2="274.4843" y1="586.4461" y2="591.6545"/><line style="stroke:#2FA4E7;stroke-width:3.125;" x1="274.4843" x2="274.4843" y1="591.6545" y2="607.2795"/><polygon fill="#2FA4E7" points="270.3176,596.8628,274.4843,607.2795,278.6509,596.8628,274.4843,601.0295" style="stroke:#2FA4E7;stroke-width:1.0417;"/><line style="stroke:#2FA4E7;stroke-width:3.125;" x1="274.4843" x2="274.4843" y1="195.575" y2="235.7463"/><polygon fill="#2FA4E7" points="270.3176,225.3296,274.4843,235.7463,278.6509,225.3296,274.4843,229.4963" style="stroke:#2FA4E7;stroke-width:1.0417;"/><line style="stroke:#2FA4E7;stroke-width:3.125;" x1="274.4843" x2="274.4843" y1="632.2795" y2="642.6961"/><line style="stroke:#2FA4E7;stroke-width:3.125;" x1="274.4843" x2="523.9685" y1="642.6961" y2="642.6961"/><polygon fill="#2FA4E7" points="519.8018,405.9525,523.9685,395.5358,528.1352,405.9525,523.9685,401.7858" style="stroke:#2FA4E7;stroke-width:3.125;"/><line style="stroke:#2FA4E7;stroke-width:3.125;" x1="523.9685" x2="523.9685" y1="182.7708" y2="642.6961"/><line style="stroke:#2FA4E7;stroke-width:3.125;" x1="523.9685" x2="353.0263" y1="182.7708" y2="182.7708"/><polygon fill="#2FA4E7" points="363.443,178.6041,353.0263,182.7708,363.443,186.9375,359.2763,182.7708" style="stroke:#2FA4E7;stroke-width:1.0417;"/><line style="stroke:#2FA4E7;stroke-width:3.125;" x1="195.9422" x2="25" y1="182.7708" y2="182.7708"/><polygon fill="#2FA4E7" points="20.8333,396.5775,25,406.9941,29.1667,396.5775,25,400.7441" style="stroke:#2FA4E7;stroke-width:3.125;"/><line style="stroke:#2FA4E7;stroke-width:3.125;" x1="25" x2="25" y1="182.7708" y2="660.4045"/><line style="stroke:#2FA4E7;stroke-width:3.125;" x1="25" x2="274.4843" y1="660.4045" y2="660.4045"/><line style="stroke:#2FA4E7;stroke-width:3.125;" x1="274.4843" x2="274.4843" y1="660.4045" y2="676.0295"/><polygon fill="#2FA4E7" points="270.3176,665.6128,274.4843,676.0295,278.6509,665.6128,274.4843,669.7795" style="stroke:#2FA4E7;stroke-width:1.0417;"/><line style="stroke:#2FA4E7;stroke-width:3.125;" x1="274.4843" x2="274.4843" y1="149.1333" y2="169.9666"/><polygon fill="#2FA4E7" points="270.3176,159.55,274.4843,169.9666,278.6509,159.55,274.4843,163.7166" style="stroke:#2FA4E7;stroke-width:1.0417;"/><line style="stroke:#2FA4E7;stroke-width:3.125;" x1="274.4843" x2="274.4843" y1="714.1378" y2="734.9711"/><polygon fill="#2FA4E7" points="270.3176,724.5544,274.4843,734.9711,278.6509,724.5544,274.4843,728.7211" style="stroke:#2FA4E7;stroke-width:1.0417;"/><?plantuml-src ZP6_JiGm3CRtF8LlQmTUe1dGYQaBGXm2CPh4fP7IE78SdNXxqhjA2Cfm6IB5_hwV_-IG1JyNX5hebKI3mpXEmCcOWywq43YI6WbRe2YAck6Pq4D8kIfuLBHcU19sLChsDESvH8Bk6ECb0lcQ9d_VGoZGFNB_u_duKh8cJD2D1HATOqYjveo2JacQetMHe7kdqXjePtWHJ6LYMVPgQrOsK2oq0J7c6LDTI8AxaVg_POzsd5GutaZTgQrPMTTb_9sBqztnz32ElzJ9Xsczj-rUYWnl4fH06OfwhchR7t4stm00?></g></svg>