<?plantuml 1.2026.1?><svg xmlns="http://www.w3.org/2000/svg" xmlns:xlink="http://www.w3.org/1999/xlink" contentStyleType="text/css" data-diagram-type="ACTIVITY" height="709.375px" preserveAspectRatio="none" style="width:551px;height:709px;" version="1.1" viewBox="0 0 551 709" width="551.0417px" zoomAndPan="magnify"><defs><linearGradient id="gywehar9bjmfy0" x1="50%" x2="50%" y1="0%" y2="100%"><stop offset="0%" stop-color="#59B6EC"/><stop offset="100%" stop-color="#2FA4E7"/></linearGradient><linearGradient id="gywehar9bjmfy1" x1="50%" x2="50%" y1="0%" y2="100%"><stop offset="0%" stop-color="#FFFFFF"/><stop offset="100%" stop-color="#EDF0F2"/></linearGradient></defs><g><ellipse cx="274.4843" cy="20.8333" fill="#033C73" rx="10.4167" ry="10.4167" style="stroke:#2683B9;stroke-width:1.0417;"/><rect fill="url(#gywehar9bjmfy0)" height="38.1083" rx="4.1667" ry="4.1667" style="stroke:#2FA4E7;stroke-width:1.0417;" width="122.8312" x="213.0686" y="52.0833"/><text fill="#FFFFFF" font-family="'Verdana'" font-size="12.5" lengthAdjust="spacing" textLength="99.9146" x="224.527" y="76.1088">Read input data</text><rect fill="url(#gywehar9bjmfy0)" height="38.1083" rx="4.1667" ry="4.1667" style="stroke:#2FA4E7;stroke-width:1.0417;" width="102.4821" x="223.2432" y="176.8046"/><text fill="#FFFFFF" font-family="'Verdana'" font-size="12.5" lengthAdjust="spacing" textLength="79.5654" x="234.7015" y="200.8301">Process data</text><rect fill="url(#gywehar9bjmfy0)" height="38.1083" rx="4.1667" ry="4.1667" style="stroke:#2FA4E7;stroke-width:1.0417;" width="202.9399" x="290.0075" y="261.3546"/><text fill="#FFFFFF" font-family="'Verdana'" font-size="12.5" lengthAdjust="spacing" textLength="180.0232" x="301.4659" y="285.38">Transform newline character</text><rect fill="url(#gywehar9bjmfy0)" height="38.1083" rx="4.1667" ry="4.1667" style="stroke:#2FA4E7;stroke-width:1.0417;" width="239.9821" x="271.4864" y="345.9045"/><text fill="#FFFFFF" font-family="'Verdana'" font-size="12.5" lengthAdjust="spacing" textLength="217.0654" x="282.9447" y="369.93">Transform alphanumeric character</text><rect fill="url(#gywehar9bjmfy0)" height="38.1083" rx="4.1667" ry="4.1667" style="stroke:#2FA4E7;stroke-width:1.0417;" width="198.4233" x="292.2658" y="430.4545"/><text fill="#FFFFFF" font-family="'Verdana'" font-size="12.5" lengthAdjust="spacing" textLength="175.5066" x="303.7242" y="454.48">Transform control character</text><polygon fill="url(#gywehar9bjmfy1)" points="68.5211,235.7463,213.1114,235.7463,225.6114,248.5504,213.1114,261.3546,68.5211,261.3546,56.0211,248.5504,68.5211,235.7463" style="stroke:#BABDBF;stroke-width:1.0417;"/><text fill="#343A40" font-family="'Verdana'" font-size="12.5" lengthAdjust="spacing" textLength="134.1736" x="73.7295" y="253.5217">Is newline character?</text><text fill="#343A40" font-family="'Verdana'" font-size="12.5" lengthAdjust="spacing" textLength="21.6492" x="230.8197" y="240.7176">Yes</text><polygon fill="url(#gywehar9bjmfy1)" points="50,320.2962,231.6325,320.2962,244.1325,333.1004,231.6325,345.9045,50,345.9045,37.5,333.1004,50,320.2962" style="stroke:#BABDBF;stroke-width:1.0417;"/><text fill="#343A40" font-family="'Verdana'" font-size="12.5" lengthAdjust="spacing" textLength="171.2158" x="55.2083" y="338.0717">Is alphanumeric character?</text><text fill="#343A40" font-family="'Verdana'" font-size="12.5" lengthAdjust="spacing" textLength="21.6492" x="249.3408" y="325.2675">Yes</text><polygon fill="url(#gywehar9bjmfy1)" points="70.7794,404.8462,210.8531,404.8462,223.3531,417.6503,210.8531,430.4545,70.7794,430.4545,58.2794,417.6503,70.7794,404.8462" style="stroke:#BABDBF;stroke-width:1.0417;"/><text fill="#343A40" font-family="'Verdana'" font-size="12.5" lengthAdjust="spacing" textLength="129.657" x="75.9878" y="422.6217">Is control character?</text><text fill="#343A40" font-family="'Verdana'" font-size="12.5" lengthAdjust="spacing" textLength="21.6492" x="228.5614" y="409.8175">Yes</text><rect fill="url(#gywehar9bjmfy0)" height="38.1083" rx="4.1667" ry="4.1667" style="stroke:#2FA4E7;stroke-width:1.0417;" width="220.5607" x="164.2039" y="489.3962"/><text fill="#FFFFFF" font-family="'Verdana'" font-size="12.5" lengthAdjust="spacing" textLength="197.644" x="175.6622" y="513.4216">Transform non-ASCII character</text><polygon fill="url(#gywehar9bjmfy1)" points="274.4843,548.3378,286.9843,560.8378,274.4843,573.3378,261.9843,560.8378,274.4843,548.3378" style="stroke:#BABDBF;stroke-width:1.0417;"/><polygon fill="url(#gywehar9bjmfy1)" points="208.4422,111.025,340.5263,111.025,353.0263,123.8291,340.5263,136.6333,208.4422,136.6333,195.9422,123.8291,208.4422,111.025" style="stroke:#BABDBF;stroke-width:1.0417;"/><text fill="#343A40" font-family="'Verdana'" font-size="12.5" lengthAdjust="spacing" textLength="16.9373" x="283.8593" y="154.4088">No</text><text fill="#343A40" font-family="'Verdana'" font-size="12.5" lengthAdjust="spacing" textLength="121.6675" x="213.6505" y="128.8005">All data processed?</text><text fill="#343A40" font-family="'Verdana'" font-size="12.5" lengthAdjust="spacing" textLength="21.6492" x="169.0847" y="115.9963">Yes</text><rect fill="url(#gywehar9bjmfy0)" height="38.1083" rx="4.1667" ry="4.1667" style="stroke:#2FA4E7;stroke-width:1.0417;" width="117.3625" x="215.803" y="617.0878"/><text fill="#FFFFFF" font-family="'Verdana'" font-size="12.5" lengthAdjust="spacing" textLength="94.4458" x="227.2614" y="641.1133">Write to stdout</text><ellipse cx="274.4843" cy="687.4878" fill="none" rx="11.4583" ry="11.4583" style="stroke:#2683B9;stroke-width:1.0417;"/><ellipse cx="274.4843" cy="687.4878" fill="none" rx="6.25" ry="6.25" style="stroke:#2683B9;stroke-width:1.0417;"/><line style="stroke:#2FA4E7;stroke-width:3.125;" x1="274.4843" x2="274.4843" y1="31.25" y2="52.0833"/><polygon fill="#2FA4E7" points="270.3176,41.6667,274.4843,52.0833,278.6509,41.6667,274.4843,45.8333" style="stroke:#2FA4E7;stroke-width:1.0417;"/><line style="stroke:#2FA4E7;stroke-width:3.125;" x1="225.6114" x2="391.4775" y1="248.5504" y2="248.5504"/><line style="stroke:#2FA4E7;stroke-width:3.125;" x1="391.4775" x2="391.4775" y1="248.5504" y2="261.3546"/><polygon fill="#2FA4E7" points="387.3108,250.9379,391.4775,261.3546,395.6441,250.9379,391.4775,255.1046" style="stroke:#2FA4E7;stroke-width:1.0417;"/><line style="stroke:#2FA4E7;stroke-width:3.125;" x1="244.1325" x2="391.4775" y1="333.1004" y2="333.1004"/><line style="stroke:#2FA4E7;stroke-width:3.125;" x1="391.4775" x2="391.4775" y1="333.1004" y2="345.9045"/><polygon fill="#2FA4E7" points="387.3108,335.4879,391.4775,345.9045,395.6441,335.4879,391.4775,339.6545" style="stroke:#2FA4E7;stroke-width:1.0417;"/><line style="stroke:#2FA4E7;stroke-width:3.125;" x1="223.3531" x2="391.4775" y1="417.6503" y2="417.6503"/><line style="stroke:#2FA4E7;stroke-width:3.125;" x1="391.4775" x2="391.4775" y1="417.6503" y2="430.4545"/><polygon fill="#2FA4E7" points="387.3108,420.0378,391.4775,430.4545,395.6441,420.0378,391.4775,424.2045" style="stroke:#2FA4E7;stroke-width:1.0417;"/><line style="stroke:#2FA4E7;stroke-width:3.125;" x1="140.8162" x2="140.8162" y1="261.3546" y2="320.2962"/><polygon fill="#2FA4E7" points="136.6496,309.8796,140.8162,320.2962,144.9829,309.8796,140.8162,314.0462" style="stroke:#2FA4E7;stroke-width:1.0417;"/><text fill="#343A40" font-family="'Verdana'" font-size="12.5" lengthAdjust="spacing" textLength="16.9373" x="146.0246" y="290.5884">No</text><line style="stroke:#2FA4E7;stroke-width:3.125;" x1="140.8162" x2="140.8162" y1="345.9045" y2="404.8462"/><polygon fill="#2FA4E7" points="136.6496,394.4295,140.8162,404.8462,144.9829,394.4295,140.8162,398.5962" style="stroke:#2FA4E7;stroke-width:1.0417;"/><text fill="#343A40" font-family="'Verdana'" font-size="12.5" lengthAdjust="spacing" textLength="16.9373" x="146.0246" y="375.1383">No</text><line style="stroke:#2FA4E7;stroke-width:3.125;" x1="391.4775" x2="391.4775" y1="299.4629" y2="315.0879"/><line style="stroke:#2FA4E7;stroke-width:3.125;" x1="391.4775" x2="511.4685" y1="315.0879" y2="315.0879"/><line style="stroke:#2FA4E7;stroke-width:3.125;" x1="511.4685" x2="511.4685" y1="315.0879" y2="560.8378"/><line style="stroke:#2FA4E7;stroke-width:3.125;" x1="511.4685" x2="286.9843" y1="560.8378" y2="560.8378"/><polygon fill="#2FA4E7" points="297.4009,556.6711,286.9843,560.8378,297.4009,565.0045,293.2343,560.8378" style="stroke:#2FA4E7;stroke-width:1.0417;"/><line style="stroke:#2FA4E7;stroke-width:3.125;" x1="391.4775" x2="391.4775" y1="384.0129" y2="399.6379"/><line style="stroke:#2FA4E7;stroke-width:3.125;" x1="391.4775" x2="511.4685" y1="399.6379" y2="399.6379"/><polygon fill="#2FA4E7" points="501.0518,395.4712,511.4685,399.6379,501.0518,403.8045,505.2185,399.6379" style="stroke:#2FA4E7;stroke-width:1.0417;"/><line style="stroke:#2FA4E7;stroke-width:3.125;" x1="391.4775" x2="391.4775" y1="468.5628" y2="484.1878"/><line style="stroke:#2FA4E7;stroke-width:3.125;" x1="391.4775" x2="511.4685" y1="484.1878" y2="484.1878"/><polygon fill="#2FA4E7" points="501.0518,480.0212,511.4685,484.1878,501.0518,488.3545,505.2185,484.1878" style="stroke:#2FA4E7;stroke-width:1.0417;"/><line style="stroke:#2FA4E7;stroke-width:3.125;" x1="274.4843" x2="274.4843" y1="214.9129" y2="220.1213"/><line style="stroke:#2FA4E7;stroke-width:3.125;" x1="274.4843" x2="140.8162" y1="220.1213" y2="220.1213"/><line style="stroke:#2FA4E7;stroke-width:3.125;" x1="140.8162" x2="140.8162" y1="220.1213" y2="235.7463"/><polygon fill="#2FA4E7" points="136.6496,225.3296,140.8162,235.7463,144.9829,225.3296,140.8162,229.4963" style="stroke:#2FA4E7;stroke-width:1.0417;"/><line style="stroke:#2FA4E7;stroke-width:3.125;" x1="140.8162" x2="140.8162" y1="430.4545" y2="473.7712"/><line style="stroke:#2FA4E7;stroke-width:3.125;" x1="140.8162" x2="274.4843" y1="473.7712" y2="473.7712"/><line style="stroke:#2FA4E7;stroke-width:3.125;" x1="274.4843" x2="274.4843" y1="473.7712" y2="489.3962"/><polygon fill="#2FA4E7" points="270.3176,478.9795,274.4843,489.3962,278.6509,478.9795,274.4843,483.1462" style="stroke:#2FA4E7;stroke-width:1.0417;"/><text fill="#343A40" font-family="'Verdana'" font-size="12.5" lengthAdjust="spacing" textLength="16.9373" x="146.0246" y="459.6883">No</text><line style="stroke:#2FA4E7;stroke-width:3.125;" x1="274.4843" x2="274.4843" y1="527.5045" y2="532.7128"/><line style="stroke:#2FA4E7;stroke-width:3.125;" x1="274.4843" x2="274.4843" y1="532.7128" y2="548.3378"/><polygon fill="#2FA4E7" points="270.3176,537.9211,274.4843,548.3378,278.6509,537.9211,274.4843,542.0878" style="stroke:#2FA4E7;stroke-width:1.0417;"/><line style="stroke:#2FA4E7;stroke-width:3.125;" x1="274.4843" x2="274.4843" y1="136.6333" y2="176.8046"/><polygon fill="#2FA4E7" points="270.3176,166.3879,274.4843,176.8046,278.6509,166.3879,274.4843,170.5546" style="stroke:#2FA4E7;stroke-width:1.0417;"/><line style="stroke:#2FA4E7;stroke-width:3.125;" x1="274.4843" x2="274.4843" y1="573.3378" y2="583.7545"/><line style="stroke:#2FA4E7;stroke-width:3.125;" x1="274.4843" x2="523.9685" y1="583.7545" y2="583.7545"/><polygon fill="#2FA4E7" points="519.8018,347.0108,523.9685,336.5941,528.1352,347.0108,523.9685,342.8441" style="stroke:#2FA4E7;stroke-width:3.125;"/><line style="stroke:#2FA4E7;stroke-width:3.125;" x1="523.9685" x2="523.9685" y1="123.8291" y2="583.7545"/><line style="stroke:#2FA4E7;stroke-width:3.125;" x1="523.9685" x2="353.0263" y1="123.8291" y2="123.8291"/><polygon fill="#2FA4E7" points="363.443,119.6625,353.0263,123.8291,363.443,127.9958,359.2763,123.8291" style="stroke:#2FA4E7;stroke-width:1.0417;"/><line style="stroke:#2FA4E7;stroke-width:3.125;" x1="195.9422" x2="25" y1="123.8291" y2="123.8291"/><polygon fill="#2FA4E7" points="20.8333,337.6358,25,348.0525,29.1667,337.6358,25,341.8025" style="stroke:#2FA4E7;stroke-width:3.125;"/><line style="stroke:#2FA4E7;stroke-width:3.125;" x1="25" x2="25" y1="123.8291" y2="601.4628"/><line style="stroke:#2FA4E7;stroke-width:3.125;" x1="25" x2="274.4843" y1="601.4628" y2="601.4628"/><line style="stroke:#2FA4E7;stroke-width:3.125;" x1="274.4843" x2="274.4843" y1="601.4628" y2="617.0878"/><polygon fill="#2FA4E7" points="270.3176,606.6711,274.4843,617.0878,278.6509,606.6711,274.4843,610.8378" style="stroke:#2FA4E7;stroke-width:1.0417;"/><line style="stroke:#2FA4E7;stroke-width:3.125;" x1="274.4843" x2="274.4843" y1="90.1917" y2="111.025"/><polygon fill="#2FA4E7" points="270.3176,100.6083,274.4843,111.025,278.6509,100.6083,274.4843,104.775" style="stroke:#2FA4E7;stroke-width:1.0417;"/><line style="stroke:#2FA4E7;stroke-width:3.125;" x1="274.4843" x2="274.4843" y1="655.1961" y2="676.0295"/><polygon fill="#2FA4E7" points="270.3176,665.6128,274.4843,676.0295,278.6509,665.6128,274.4843,669.7795" style="stroke:#2FA4E7;stroke-width:1.0417;"/><?plantuml-src ZP4nJyGm38Lt_mhVrWxyWNP09wOk2042CLg9IoEbJkGukhzFUjS5od0UF3ozzpt5EMMbxvMm5lvWjU0eJZCc0JZPmYkZOwsHgGd5I0s6LoQFGN8rz6Gq0boM41cxSunN1RCcnwMmV-mn5EoUKm_3oqtSCs76RYeeV8b1Mib2IivOMwBL2dPVN7h0DiExafGvwNfqZx2naMFX7KWnBoHrPGtkJkh_aIFQ9J5DyKxgmJt2nheTu--xaZoStvwcwPTRV9YtlL_tMZ9yQZ16IrZCfsfZ-vIKuGS0?></g></svg>